<svg width="54" height="54" viewBox="0 0 54 54" fill="none" xmlns="http://www.w3.org/2000/svg">
<path fill-rule="evenodd" clip-rule="evenodd" d="M25 2C25 0.895429 25.8954 0 27 0C28.1045 0 29 0.895431 29 2V8.10401C32.747 8.49599 36.1699 9.97704 38.9466 12.2249L40.435 10.7365C41.216 9.95549 42.4824 9.9555 43.2634 10.7365C44.0445 11.5176 44.0445 12.7839 43.2634 13.565L41.775 15.0534C44.0229 17.83 45.504 21.253 45.896 25H52C53.1045 25 54 25.8954 54 27C54 28.1046 53.1045 29 52 29H45.896C45.504 32.747 44.0229 36.17 41.775 38.9466L43.2634 40.435C44.0445 41.2161 44.0445 42.4824 43.2634 43.2635C42.4824 44.0445 41.216 44.0445 40.435 43.2635L38.9466 41.7751C36.1699 44.023 32.747 45.504 29 45.896V52C29 53.1046 28.1045 54 27 54C25.8954 54 25 53.1046 25 52V45.896C21.2529 45.504 17.83 44.023 15.0533 41.7751L13.5649 43.2635C12.7839 44.0445 11.5176 44.0445 10.7365 43.2635C9.95547 42.4824 9.95547 41.2161 10.7365 40.435L12.2249 38.9466C9.97701 36.17 8.49596 32.747 8.10398 29H1.99997C0.895398 29 -3.05176e-05 28.1046 -3.05176e-05 27C-3.05176e-05 25.8954 0.8954 25 1.99997 25H8.10398C8.49596 21.253 9.97701 17.83 12.2249 15.0534L10.7365 13.565C9.95546 12.7839 9.95547 11.5176 10.7365 10.7365C11.5176 9.9555 12.7839 9.9555 13.5649 10.7365L15.0533 12.2249C17.83 9.97704 21.2529 8.49599 25 8.10401V2ZM25 20C25 22.7614 22.7614 25 20 25C17.2385 25 15 22.7614 15 20C15 17.2386 17.2385 15 20 15C22.7614 15 25 17.2386 25 20ZM27 15C28.1045 15 29 14.1046 29 13C29 11.8954 28.1045 11 27 11C25.8954 11 25 11.8954 25 13C25 14.1046 25.8954 15 27 15Z" fill="white"/>
</svg>
