<svg width="525" height="108" viewBox="0 0 525 108" fill="none" xmlns="http://www.w3.org/2000/svg">
<path d="M32.1159 63.166C31.5439 63.65 30.7959 64.046 29.8719 64.354C28.9919 64.618 27.9579 64.75 26.7699 64.75C25.1859 64.75 23.8659 64.552 22.8099 64.156C21.7979 63.76 21.1379 63.078 20.8299 62.11C19.5979 58.238 18.5859 55.114 17.7939 52.738C17.0019 50.318 16.3859 48.206 15.9459 46.402H15.6159C15.4839 48.998 15.3739 51.374 15.2859 53.53C15.2419 55.642 15.1979 57.71 15.1539 59.734C15.1539 61.758 15.1099 63.804 15.0219 65.872C14.9779 67.94 14.8899 70.228 14.7579 72.736C14.1859 72.956 13.4379 73.132 12.5139 73.264C11.5899 73.44 10.6659 73.528 9.74188 73.528C7.80588 73.528 6.28788 73.22 5.18788 72.604C4.13188 71.988 3.60388 70.866 3.60388 69.238L5.51788 35.578C5.86988 35.006 6.63988 34.39 7.82788 33.73C9.01588 33.07 10.6879 32.74 12.8439 32.74C15.1759 32.74 17.0019 33.114 18.3219 33.862C19.6419 34.566 20.6099 35.732 21.2259 37.36C21.6219 38.416 22.0399 39.626 22.4799 40.99C22.9639 42.354 23.4259 43.762 23.8659 45.214C24.3499 46.666 24.8119 48.118 25.2519 49.57C25.6919 50.978 26.0879 52.254 26.4399 53.398H26.7699C27.8259 49.702 28.8819 46.138 29.9379 42.706C30.9939 39.23 31.9619 36.326 32.8419 33.994C33.5019 33.642 34.3379 33.356 35.3499 33.136C36.4059 32.872 37.5719 32.74 38.8479 32.74C41.0039 32.74 42.7639 33.07 44.1279 33.73C45.4919 34.346 46.2839 35.248 46.5039 36.436C46.6799 37.316 46.8559 38.68 47.0319 40.528C47.2519 42.332 47.4719 44.378 47.6919 46.666C47.9119 48.954 48.1319 51.374 48.3519 53.926C48.5719 56.478 48.7699 58.942 48.9459 61.318C49.1659 63.65 49.3419 65.806 49.4739 67.786C49.6059 69.722 49.6939 71.218 49.7379 72.274C48.9899 72.714 48.1979 73.022 47.3619 73.198C46.5699 73.418 45.5359 73.528 44.2599 73.528C42.5879 73.528 41.1799 73.242 40.0359 72.67C38.8919 72.098 38.2759 70.976 38.1879 69.304C37.9239 64.508 37.7479 60.196 37.6599 56.368C37.6159 52.54 37.5279 49.328 37.3959 46.732H37.0659C36.6259 48.448 35.9879 50.604 35.1519 53.2C34.3159 55.796 33.3039 59.118 32.1159 63.166ZM68.6056 72.736C68.1216 72.868 67.3516 73 66.2956 73.132C65.2836 73.264 64.2716 73.33 63.2596 73.33C62.2476 73.33 61.3456 73.242 60.5536 73.066C59.8056 72.934 59.1676 72.67 58.6396 72.274C58.1116 71.878 57.7156 71.328 57.4516 70.624C57.1876 69.92 57.0556 68.996 57.0556 67.852V33.004C57.5396 32.916 58.3096 32.806 59.3656 32.674C60.4216 32.498 61.4336 32.41 62.4016 32.41C63.4136 32.41 64.2936 32.498 65.0416 32.674C65.8336 32.806 66.4936 33.07 67.0216 33.466C67.5496 33.862 67.9456 34.412 68.2096 35.116C68.4736 35.82 68.6056 36.744 68.6056 37.888V72.736ZM113.399 71.614C112.783 72.23 111.881 72.692 110.693 73C109.549 73.352 108.163 73.528 106.535 73.528C104.907 73.528 103.367 73.286 101.915 72.802C100.463 72.318 99.275 71.152 98.351 69.304L91.817 55.972C91.157 54.608 90.563 53.332 90.035 52.144C89.507 50.912 88.935 49.504 88.319 47.92L87.923 47.986C88.099 50.362 88.187 52.782 88.187 55.246C88.231 57.71 88.253 60.13 88.253 62.506V72.736C87.769 72.868 87.021 73 86.009 73.132C85.041 73.264 84.073 73.33 83.105 73.33C82.137 73.33 81.279 73.264 80.531 73.132C79.783 73 79.167 72.736 78.683 72.34C78.199 71.944 77.825 71.416 77.561 70.756C77.297 70.052 77.165 69.15 77.165 68.05V35.05C77.781 34.17 78.727 33.51 80.003 33.07C81.279 32.63 82.643 32.41 84.095 32.41C85.723 32.41 87.263 32.674 88.715 33.202C90.211 33.686 91.399 34.83 92.279 36.634L98.879 49.966C99.539 51.33 100.133 52.628 100.661 53.86C101.189 55.048 101.761 56.434 102.377 58.018L102.707 57.952C102.531 55.576 102.421 53.2 102.377 50.824C102.333 48.448 102.311 46.072 102.311 43.696V33.004C102.795 32.872 103.521 32.74 104.489 32.608C105.501 32.476 106.491 32.41 107.459 32.41C109.395 32.41 110.869 32.762 111.881 33.466C112.893 34.126 113.399 35.534 113.399 37.69V71.614ZM121.96 39.142C121.96 37.25 122.51 35.754 123.61 34.654C124.71 33.554 126.206 33.004 128.098 33.004H149.878C150.186 33.488 150.45 34.126 150.67 34.918C150.934 35.71 151.066 36.546 151.066 37.426C151.066 39.098 150.692 40.286 149.944 40.99C149.24 41.694 148.294 42.046 147.106 42.046H133.18V48.184H148.03C148.338 48.668 148.602 49.306 148.822 50.098C149.086 50.846 149.218 51.66 149.218 52.54C149.218 54.212 148.866 55.4 148.162 56.104C147.458 56.808 146.512 57.16 145.324 57.16H133.18V64.09H150.142C150.45 64.574 150.714 65.212 150.934 66.004C151.198 66.796 151.33 67.632 151.33 68.512C151.33 70.184 150.956 71.394 150.208 72.142C149.504 72.846 148.558 73.198 147.37 73.198H128.098C126.206 73.198 124.71 72.648 123.61 71.548C122.51 70.448 121.96 68.952 121.96 67.06V39.142Z" fill="#DCDEE6"/>
<path d="M260.118 57.094C258.182 56.434 256.422 55.774 254.838 55.114C253.254 54.41 251.89 53.574 250.746 52.606C249.602 51.638 248.7 50.494 248.04 49.174C247.424 47.81 247.116 46.16 247.116 44.224C247.116 40.484 248.546 37.492 251.406 35.248C254.31 33.004 258.358 31.882 263.55 31.882C265.442 31.882 267.202 32.014 268.83 32.278C270.458 32.542 271.844 32.96 272.988 33.532C274.176 34.06 275.1 34.764 275.76 35.644C276.42 36.48 276.75 37.47 276.75 38.614C276.75 39.758 276.486 40.748 275.958 41.584C275.43 42.376 274.792 43.058 274.044 43.63C273.076 43.014 271.778 42.486 270.15 42.046C268.522 41.562 266.74 41.32 264.804 41.32C262.824 41.32 261.372 41.606 260.448 42.178C259.524 42.706 259.062 43.388 259.062 44.224C259.062 44.884 259.348 45.434 259.92 45.874C260.492 46.27 261.35 46.644 262.494 46.996L265.992 48.118C270.128 49.438 273.296 51.132 275.496 53.2C277.74 55.224 278.862 57.996 278.862 61.516C278.862 65.256 277.388 68.292 274.44 70.624C271.492 72.912 267.158 74.056 261.438 74.056C259.414 74.056 257.522 73.88 255.762 73.528C254.046 73.22 252.528 72.758 251.208 72.142C249.932 71.482 248.92 70.69 248.172 69.766C247.468 68.798 247.116 67.698 247.116 66.466C247.116 65.19 247.49 64.112 248.238 63.232C248.986 62.308 249.8 61.604 250.68 61.12C251.912 62.088 253.408 62.924 255.168 63.628C256.972 64.332 258.93 64.684 261.042 64.684C263.198 64.684 264.716 64.354 265.596 63.694C266.476 63.034 266.916 62.264 266.916 61.384C266.916 60.504 266.564 59.844 265.86 59.404C265.156 58.92 264.166 58.458 262.89 58.018L260.118 57.094ZM303.275 42.772C303.759 42.552 304.507 42.31 305.519 42.046C306.575 41.738 307.631 41.584 308.687 41.584C310.535 41.584 312.075 41.87 313.307 42.442C314.539 42.97 315.287 43.762 315.551 44.818C316.035 46.622 316.475 48.316 316.871 49.9C317.311 51.44 317.729 52.936 318.125 54.388C318.521 55.796 318.895 57.204 319.247 58.612C319.643 60.02 320.017 61.494 320.369 63.034H320.699C321.095 60.35 321.447 57.798 321.755 55.378C322.063 52.914 322.349 50.516 322.613 48.184C322.877 45.808 323.141 43.476 323.405 41.188C323.669 38.856 323.933 36.502 324.197 34.126C325.825 33.202 327.563 32.74 329.411 32.74C331.039 32.74 332.447 33.092 333.635 33.796C334.823 34.5 335.417 35.688 335.417 37.36C335.417 38.328 335.307 39.714 335.087 41.518C334.911 43.278 334.647 45.258 334.295 47.458C333.987 49.658 333.613 51.968 333.173 54.388C332.733 56.808 332.271 59.118 331.787 61.318C331.303 63.518 330.797 65.52 330.269 67.324C329.785 69.084 329.323 70.448 328.883 71.416C328.223 72.032 327.145 72.538 325.649 72.934C324.153 73.33 322.613 73.528 321.029 73.528C318.961 73.528 317.201 73.264 315.749 72.736C314.341 72.164 313.483 71.372 313.175 70.36C312.603 68.6 311.987 66.51 311.327 64.09C310.667 61.67 309.963 59.008 309.215 56.104C308.599 58.964 307.961 61.758 307.301 64.486C306.641 67.214 306.047 69.524 305.519 71.416C304.859 72.032 303.869 72.538 302.549 72.934C301.229 73.33 299.777 73.528 298.193 73.528C296.213 73.528 294.409 73.264 292.781 72.736C291.197 72.164 290.163 71.372 289.679 70.36C289.283 69.568 288.843 68.402 288.359 66.862C287.919 65.278 287.457 63.496 286.973 61.516C286.489 59.492 285.983 57.314 285.455 54.982C284.971 52.65 284.509 50.318 284.069 47.986C283.673 45.654 283.299 43.388 282.947 41.188C282.595 38.944 282.331 36.898 282.155 35.05C282.771 34.478 283.629 33.95 284.729 33.466C285.829 32.982 287.017 32.74 288.293 32.74C289.965 32.74 291.329 33.114 292.385 33.862C293.485 34.566 294.167 35.776 294.431 37.492C295.135 41.98 295.707 45.72 296.147 48.712C296.631 51.704 297.005 54.168 297.269 56.104C297.577 57.996 297.797 59.47 297.929 60.526C298.061 61.582 298.193 62.418 298.325 63.034H298.655C299.051 61.274 299.425 59.646 299.777 58.15C300.129 56.654 300.481 55.158 300.833 53.662C301.229 52.122 301.625 50.494 302.021 48.778C302.417 47.018 302.835 45.016 303.275 42.772ZM341.771 39.142C341.771 37.25 342.321 35.754 343.421 34.654C344.521 33.554 346.017 33.004 347.909 33.004H369.689C369.997 33.488 370.261 34.126 370.481 34.918C370.745 35.71 370.877 36.546 370.877 37.426C370.877 39.098 370.503 40.286 369.755 40.99C369.051 41.694 368.105 42.046 366.917 42.046H352.991V48.184H367.841C368.149 48.668 368.413 49.306 368.633 50.098C368.897 50.846 369.029 51.66 369.029 52.54C369.029 54.212 368.677 55.4 367.973 56.104C367.269 56.808 366.323 57.16 365.135 57.16H352.991V64.09H369.953C370.261 64.574 370.525 65.212 370.745 66.004C371.009 66.796 371.141 67.632 371.141 68.512C371.141 70.184 370.767 71.394 370.019 72.142C369.315 72.846 368.369 73.198 367.181 73.198H347.909C346.017 73.198 344.521 72.648 343.421 71.548C342.321 70.448 341.771 68.952 341.771 67.06V39.142ZM377.93 39.142C377.93 37.25 378.48 35.754 379.58 34.654C380.68 33.554 382.176 33.004 384.068 33.004H405.848C406.156 33.488 406.42 34.126 406.64 34.918C406.904 35.71 407.036 36.546 407.036 37.426C407.036 39.098 406.662 40.286 405.914 40.99C405.21 41.694 404.264 42.046 403.076 42.046H389.15V48.184H404C404.308 48.668 404.572 49.306 404.792 50.098C405.056 50.846 405.188 51.66 405.188 52.54C405.188 54.212 404.836 55.4 404.132 56.104C403.428 56.808 402.482 57.16 401.294 57.16H389.15V64.09H406.112C406.42 64.574 406.684 65.212 406.904 66.004C407.168 66.796 407.3 67.632 407.3 68.512C407.3 70.184 406.926 71.394 406.178 72.142C405.474 72.846 404.528 73.198 403.34 73.198H384.068C382.176 73.198 380.68 72.648 379.58 71.548C378.48 70.448 377.93 68.952 377.93 67.06V39.142ZM429.07 51.55C430.918 51.55 432.326 51.132 433.294 50.296C434.306 49.416 434.812 48.096 434.812 46.336C434.812 44.664 434.284 43.388 433.228 42.508C432.216 41.584 430.72 41.122 428.74 41.122C428.036 41.122 427.442 41.144 426.958 41.188C426.518 41.188 426.056 41.232 425.572 41.32V51.55H429.07ZM425.638 72.736C425.154 72.868 424.384 73 423.328 73.132C422.316 73.264 421.304 73.33 420.292 73.33C419.28 73.33 418.378 73.242 417.586 73.066C416.838 72.934 416.2 72.67 415.672 72.274C415.144 71.878 414.748 71.328 414.484 70.624C414.22 69.92 414.088 68.996 414.088 67.852V36.766C414.088 35.842 414.33 35.138 414.814 34.654C415.342 34.126 416.046 33.708 416.926 33.4C418.422 32.872 420.116 32.498 422.008 32.278C423.944 32.014 425.88 31.882 427.816 31.882C433.888 31.882 438.53 33.18 441.742 35.776C444.954 38.372 446.56 41.892 446.56 46.336C446.56 48.492 446.208 50.45 445.504 52.21C444.844 53.926 443.832 55.422 442.468 56.698C441.148 57.93 439.454 58.898 437.386 59.602C435.362 60.262 433.008 60.592 430.324 60.592H425.638V72.736ZM452.437 39.142C452.437 37.25 452.987 35.754 454.087 34.654C455.187 33.554 456.683 33.004 458.575 33.004H480.355C480.663 33.488 480.927 34.126 481.147 34.918C481.411 35.71 481.543 36.546 481.543 37.426C481.543 39.098 481.169 40.286 480.421 40.99C479.717 41.694 478.771 42.046 477.583 42.046H463.657V48.184H478.507C478.815 48.668 479.079 49.306 479.299 50.098C479.563 50.846 479.695 51.66 479.695 52.54C479.695 54.212 479.343 55.4 478.639 56.104C477.935 56.808 476.989 57.16 475.801 57.16H463.657V64.09H480.619C480.927 64.574 481.191 65.212 481.411 66.004C481.675 66.796 481.807 67.632 481.807 68.512C481.807 70.184 481.433 71.394 480.685 72.142C479.981 72.846 479.035 73.198 477.847 73.198H458.575C456.683 73.198 455.187 72.648 454.087 71.548C452.987 70.448 452.437 68.952 452.437 67.06V39.142ZM500.08 60.064V72.736C499.596 72.868 498.826 73 497.77 73.132C496.758 73.264 495.746 73.33 494.734 73.33C493.722 73.33 492.82 73.242 492.028 73.066C491.28 72.934 490.642 72.67 490.114 72.274C489.63 71.878 489.256 71.328 488.992 70.624C488.728 69.92 488.596 68.996 488.596 67.852V36.766C488.596 35.842 488.838 35.138 489.322 34.654C489.85 34.126 490.554 33.708 491.434 33.4C492.93 32.872 494.668 32.498 496.648 32.278C498.628 32.014 500.74 31.882 502.984 31.882C509.056 31.882 513.632 33.158 516.712 35.71C519.792 38.262 521.332 41.716 521.332 46.072C521.332 48.8 520.628 51.132 519.22 53.068C517.812 55.004 516.14 56.5 514.204 57.556C515.788 59.712 517.35 61.736 518.89 63.628C520.43 65.52 521.64 67.236 522.52 68.776C522.08 70.316 521.266 71.504 520.078 72.34C518.934 73.132 517.636 73.528 516.184 73.528C515.216 73.528 514.38 73.418 513.676 73.198C512.972 72.978 512.356 72.67 511.828 72.274C511.3 71.878 510.816 71.394 510.376 70.822C509.936 70.25 509.518 69.634 509.122 68.974L503.578 60.064H500.08ZM504.238 51.286C505.91 51.286 507.23 50.868 508.198 50.032C509.166 49.152 509.65 47.876 509.65 46.204C509.65 44.532 509.1 43.278 508 42.442C506.944 41.562 505.25 41.122 502.918 41.122C502.258 41.122 501.73 41.144 501.334 41.188C500.938 41.232 500.498 41.298 500.014 41.386V51.286H504.238Z" fill="#DCDEE6"/>
<circle cx="199" cy="56" r="23" fill="#DCDEE6"/>
<path fill-rule="evenodd" clip-rule="evenodd" d="M196 26C196 24.3431 197.343 23 199 23C200.657 23 202 24.3431 202 26V33.1939C206.107 33.7289 209.874 35.3475 213.004 37.7533L214.556 36.201C215.728 35.0294 217.627 35.0294 218.799 36.201C219.971 37.3726 219.971 39.2721 218.799 40.4437L217.247 41.996C219.653 45.1261 221.271 48.8928 221.806 53H229C230.657 53 232 54.3431 232 56C232 57.6569 230.657 59 229 59H221.806C221.271 63.1072 219.653 66.8739 217.247 70.004L218.799 71.5563C219.971 72.7279 219.971 74.6274 218.799 75.799C217.627 76.9706 215.728 76.9706 214.556 75.799L213.004 74.2467C209.874 76.6525 206.107 78.2711 202 78.8061V86C202 87.6569 200.657 89 199 89C197.343 89 196 87.6569 196 86V78.8061C191.893 78.2711 188.126 76.6525 184.996 74.2467L183.444 75.799C182.272 76.9706 180.373 76.9706 179.201 75.799C178.029 74.6274 178.029 72.7279 179.201 71.5564L180.753 70.004C178.347 66.8739 176.729 63.1072 176.194 59H169C167.343 59 166 57.6569 166 56C166 54.3431 167.343 53 169 53H176.194C176.729 48.8928 178.347 45.1261 180.753 41.996L179.201 40.4436C178.029 39.2721 178.029 37.3726 179.201 36.201C180.373 35.0294 182.272 35.0294 183.444 36.201L184.996 37.7533C188.126 35.3475 191.893 33.7289 196 33.1939V26ZM196 47C196 50.3137 193.314 53 190 53C186.686 53 184 50.3137 184 47C184 43.6863 186.686 41 190 41C193.314 41 196 43.6863 196 47ZM199 41C200.105 41 201 40.1046 201 39C201 37.8954 200.105 37 199 37C197.895 37 197 37.8954 197 39C197 40.1046 197.895 41 199 41Z" fill="#DCDEE6"/>
<path d="M32.1159 59.166C31.5439 59.65 30.7959 60.046 29.8719 60.354C28.9919 60.618 27.9579 60.75 26.7699 60.75C25.1859 60.75 23.8659 60.552 22.8099 60.156C21.7979 59.76 21.1379 59.078 20.8299 58.11C19.5979 54.238 18.5859 51.114 17.7939 48.738C17.0019 46.318 16.3859 44.206 15.9459 42.402H15.6159C15.4839 44.998 15.3739 47.374 15.2859 49.53C15.2419 51.642 15.1979 53.71 15.1539 55.734C15.1539 57.758 15.1099 59.804 15.0219 61.872C14.9779 63.94 14.8899 66.228 14.7579 68.736C14.1859 68.956 13.4379 69.132 12.5139 69.264C11.5899 69.44 10.6659 69.528 9.74188 69.528C7.80588 69.528 6.28788 69.22 5.18788 68.604C4.13188 67.988 3.60388 66.866 3.60388 65.238L5.51788 31.578C5.86988 31.006 6.63988 30.39 7.82788 29.73C9.01588 29.07 10.6879 28.74 12.8439 28.74C15.1759 28.74 17.0019 29.114 18.3219 29.862C19.6419 30.566 20.6099 31.732 21.2259 33.36C21.6219 34.416 22.0399 35.626 22.4799 36.99C22.9639 38.354 23.4259 39.762 23.8659 41.214C24.3499 42.666 24.8119 44.118 25.2519 45.57C25.6919 46.978 26.0879 48.254 26.4399 49.398H26.7699C27.8259 45.702 28.8819 42.138 29.9379 38.706C30.9939 35.23 31.9619 32.326 32.8419 29.994C33.5019 29.642 34.3379 29.356 35.3499 29.136C36.4059 28.872 37.5719 28.74 38.8479 28.74C41.0039 28.74 42.7639 29.07 44.1279 29.73C45.4919 30.346 46.2839 31.248 46.5039 32.436C46.6799 33.316 46.8559 34.68 47.0319 36.528C47.2519 38.332 47.4719 40.378 47.6919 42.666C47.9119 44.954 48.1319 47.374 48.3519 49.926C48.5719 52.478 48.7699 54.942 48.9459 57.318C49.1659 59.65 49.3419 61.806 49.4739 63.786C49.6059 65.722 49.6939 67.218 49.7379 68.274C48.9899 68.714 48.1979 69.022 47.3619 69.198C46.5699 69.418 45.5359 69.528 44.2599 69.528C42.5879 69.528 41.1799 69.242 40.0359 68.67C38.8919 68.098 38.2759 66.976 38.1879 65.304C37.9239 60.508 37.7479 56.196 37.6599 52.368C37.6159 48.54 37.5279 45.328 37.3959 42.732H37.0659C36.6259 44.448 35.9879 46.604 35.1519 49.2C34.3159 51.796 33.3039 55.118 32.1159 59.166ZM68.6056 68.736C68.1216 68.868 67.3516 69 66.2956 69.132C65.2836 69.264 64.2716 69.33 63.2596 69.33C62.2476 69.33 61.3456 69.242 60.5536 69.066C59.8056 68.934 59.1676 68.67 58.6396 68.274C58.1116 67.878 57.7156 67.328 57.4516 66.624C57.1876 65.92 57.0556 64.996 57.0556 63.852V29.004C57.5396 28.916 58.3096 28.806 59.3656 28.674C60.4216 28.498 61.4336 28.41 62.4016 28.41C63.4136 28.41 64.2936 28.498 65.0416 28.674C65.8336 28.806 66.4936 29.07 67.0216 29.466C67.5496 29.862 67.9456 30.412 68.2096 31.116C68.4736 31.82 68.6056 32.744 68.6056 33.888V68.736ZM113.399 67.614C112.783 68.23 111.881 68.692 110.693 69C109.549 69.352 108.163 69.528 106.535 69.528C104.907 69.528 103.367 69.286 101.915 68.802C100.463 68.318 99.275 67.152 98.351 65.304L91.817 51.972C91.157 50.608 90.563 49.332 90.035 48.144C89.507 46.912 88.935 45.504 88.319 43.92L87.923 43.986C88.099 46.362 88.187 48.782 88.187 51.246C88.231 53.71 88.253 56.13 88.253 58.506V68.736C87.769 68.868 87.021 69 86.009 69.132C85.041 69.264 84.073 69.33 83.105 69.33C82.137 69.33 81.279 69.264 80.531 69.132C79.783 69 79.167 68.736 78.683 68.34C78.199 67.944 77.825 67.416 77.561 66.756C77.297 66.052 77.165 65.15 77.165 64.05V31.05C77.781 30.17 78.727 29.51 80.003 29.07C81.279 28.63 82.643 28.41 84.095 28.41C85.723 28.41 87.263 28.674 88.715 29.202C90.211 29.686 91.399 30.83 92.279 32.634L98.879 45.966C99.539 47.33 100.133 48.628 100.661 49.86C101.189 51.048 101.761 52.434 102.377 54.018L102.707 53.952C102.531 51.576 102.421 49.2 102.377 46.824C102.333 44.448 102.311 42.072 102.311 39.696V29.004C102.795 28.872 103.521 28.74 104.489 28.608C105.501 28.476 106.491 28.41 107.459 28.41C109.395 28.41 110.869 28.762 111.881 29.466C112.893 30.126 113.399 31.534 113.399 33.69V67.614ZM121.96 35.142C121.96 33.25 122.51 31.754 123.61 30.654C124.71 29.554 126.206 29.004 128.098 29.004H149.878C150.186 29.488 150.45 30.126 150.67 30.918C150.934 31.71 151.066 32.546 151.066 33.426C151.066 35.098 150.692 36.286 149.944 36.99C149.24 37.694 148.294 38.046 147.106 38.046H133.18V44.184H148.03C148.338 44.668 148.602 45.306 148.822 46.098C149.086 46.846 149.218 47.66 149.218 48.54C149.218 50.212 148.866 51.4 148.162 52.104C147.458 52.808 146.512 53.16 145.324 53.16H133.18V60.09H150.142C150.45 60.574 150.714 61.212 150.934 62.004C151.198 62.796 151.33 63.632 151.33 64.512C151.33 66.184 150.956 67.394 150.208 68.142C149.504 68.846 148.558 69.198 147.37 69.198H128.098C126.206 69.198 124.71 68.648 123.61 67.548C122.51 66.448 121.96 64.952 121.96 63.06V35.142Z" fill="#FF8A00"/>
<path d="M260.118 53.094C258.182 52.434 256.422 51.774 254.838 51.114C253.254 50.41 251.89 49.574 250.746 48.606C249.602 47.638 248.7 46.494 248.04 45.174C247.424 43.81 247.116 42.16 247.116 40.224C247.116 36.484 248.546 33.492 251.406 31.248C254.31 29.004 258.358 27.882 263.55 27.882C265.442 27.882 267.202 28.014 268.83 28.278C270.458 28.542 271.844 28.96 272.988 29.532C274.176 30.06 275.1 30.764 275.76 31.644C276.42 32.48 276.75 33.47 276.75 34.614C276.75 35.758 276.486 36.748 275.958 37.584C275.43 38.376 274.792 39.058 274.044 39.63C273.076 39.014 271.778 38.486 270.15 38.046C268.522 37.562 266.74 37.32 264.804 37.32C262.824 37.32 261.372 37.606 260.448 38.178C259.524 38.706 259.062 39.388 259.062 40.224C259.062 40.884 259.348 41.434 259.92 41.874C260.492 42.27 261.35 42.644 262.494 42.996L265.992 44.118C270.128 45.438 273.296 47.132 275.496 49.2C277.74 51.224 278.862 53.996 278.862 57.516C278.862 61.256 277.388 64.292 274.44 66.624C271.492 68.912 267.158 70.056 261.438 70.056C259.414 70.056 257.522 69.88 255.762 69.528C254.046 69.22 252.528 68.758 251.208 68.142C249.932 67.482 248.92 66.69 248.172 65.766C247.468 64.798 247.116 63.698 247.116 62.466C247.116 61.19 247.49 60.112 248.238 59.232C248.986 58.308 249.8 57.604 250.68 57.12C251.912 58.088 253.408 58.924 255.168 59.628C256.972 60.332 258.93 60.684 261.042 60.684C263.198 60.684 264.716 60.354 265.596 59.694C266.476 59.034 266.916 58.264 266.916 57.384C266.916 56.504 266.564 55.844 265.86 55.404C265.156 54.92 264.166 54.458 262.89 54.018L260.118 53.094ZM303.275 38.772C303.759 38.552 304.507 38.31 305.519 38.046C306.575 37.738 307.631 37.584 308.687 37.584C310.535 37.584 312.075 37.87 313.307 38.442C314.539 38.97 315.287 39.762 315.551 40.818C316.035 42.622 316.475 44.316 316.871 45.9C317.311 47.44 317.729 48.936 318.125 50.388C318.521 51.796 318.895 53.204 319.247 54.612C319.643 56.02 320.017 57.494 320.369 59.034H320.699C321.095 56.35 321.447 53.798 321.755 51.378C322.063 48.914 322.349 46.516 322.613 44.184C322.877 41.808 323.141 39.476 323.405 37.188C323.669 34.856 323.933 32.502 324.197 30.126C325.825 29.202 327.563 28.74 329.411 28.74C331.039 28.74 332.447 29.092 333.635 29.796C334.823 30.5 335.417 31.688 335.417 33.36C335.417 34.328 335.307 35.714 335.087 37.518C334.911 39.278 334.647 41.258 334.295 43.458C333.987 45.658 333.613 47.968 333.173 50.388C332.733 52.808 332.271 55.118 331.787 57.318C331.303 59.518 330.797 61.52 330.269 63.324C329.785 65.084 329.323 66.448 328.883 67.416C328.223 68.032 327.145 68.538 325.649 68.934C324.153 69.33 322.613 69.528 321.029 69.528C318.961 69.528 317.201 69.264 315.749 68.736C314.341 68.164 313.483 67.372 313.175 66.36C312.603 64.6 311.987 62.51 311.327 60.09C310.667 57.67 309.963 55.008 309.215 52.104C308.599 54.964 307.961 57.758 307.301 60.486C306.641 63.214 306.047 65.524 305.519 67.416C304.859 68.032 303.869 68.538 302.549 68.934C301.229 69.33 299.777 69.528 298.193 69.528C296.213 69.528 294.409 69.264 292.781 68.736C291.197 68.164 290.163 67.372 289.679 66.36C289.283 65.568 288.843 64.402 288.359 62.862C287.919 61.278 287.457 59.496 286.973 57.516C286.489 55.492 285.983 53.314 285.455 50.982C284.971 48.65 284.509 46.318 284.069 43.986C283.673 41.654 283.299 39.388 282.947 37.188C282.595 34.944 282.331 32.898 282.155 31.05C282.771 30.478 283.629 29.95 284.729 29.466C285.829 28.982 287.017 28.74 288.293 28.74C289.965 28.74 291.329 29.114 292.385 29.862C293.485 30.566 294.167 31.776 294.431 33.492C295.135 37.98 295.707 41.72 296.147 44.712C296.631 47.704 297.005 50.168 297.269 52.104C297.577 53.996 297.797 55.47 297.929 56.526C298.061 57.582 298.193 58.418 298.325 59.034H298.655C299.051 57.274 299.425 55.646 299.777 54.15C300.129 52.654 300.481 51.158 300.833 49.662C301.229 48.122 301.625 46.494 302.021 44.778C302.417 43.018 302.835 41.016 303.275 38.772ZM341.771 35.142C341.771 33.25 342.321 31.754 343.421 30.654C344.521 29.554 346.017 29.004 347.909 29.004H369.689C369.997 29.488 370.261 30.126 370.481 30.918C370.745 31.71 370.877 32.546 370.877 33.426C370.877 35.098 370.503 36.286 369.755 36.99C369.051 37.694 368.105 38.046 366.917 38.046H352.991V44.184H367.841C368.149 44.668 368.413 45.306 368.633 46.098C368.897 46.846 369.029 47.66 369.029 48.54C369.029 50.212 368.677 51.4 367.973 52.104C367.269 52.808 366.323 53.16 365.135 53.16H352.991V60.09H369.953C370.261 60.574 370.525 61.212 370.745 62.004C371.009 62.796 371.141 63.632 371.141 64.512C371.141 66.184 370.767 67.394 370.019 68.142C369.315 68.846 368.369 69.198 367.181 69.198H347.909C346.017 69.198 344.521 68.648 343.421 67.548C342.321 66.448 341.771 64.952 341.771 63.06V35.142ZM377.93 35.142C377.93 33.25 378.48 31.754 379.58 30.654C380.68 29.554 382.176 29.004 384.068 29.004H405.848C406.156 29.488 406.42 30.126 406.64 30.918C406.904 31.71 407.036 32.546 407.036 33.426C407.036 35.098 406.662 36.286 405.914 36.99C405.21 37.694 404.264 38.046 403.076 38.046H389.15V44.184H404C404.308 44.668 404.572 45.306 404.792 46.098C405.056 46.846 405.188 47.66 405.188 48.54C405.188 50.212 404.836 51.4 404.132 52.104C403.428 52.808 402.482 53.16 401.294 53.16H389.15V60.09H406.112C406.42 60.574 406.684 61.212 406.904 62.004C407.168 62.796 407.3 63.632 407.3 64.512C407.3 66.184 406.926 67.394 406.178 68.142C405.474 68.846 404.528 69.198 403.34 69.198H384.068C382.176 69.198 380.68 68.648 379.58 67.548C378.48 66.448 377.93 64.952 377.93 63.06V35.142ZM429.07 47.55C430.918 47.55 432.326 47.132 433.294 46.296C434.306 45.416 434.812 44.096 434.812 42.336C434.812 40.664 434.284 39.388 433.228 38.508C432.216 37.584 430.72 37.122 428.74 37.122C428.036 37.122 427.442 37.144 426.958 37.188C426.518 37.188 426.056 37.232 425.572 37.32V47.55H429.07ZM425.638 68.736C425.154 68.868 424.384 69 423.328 69.132C422.316 69.264 421.304 69.33 420.292 69.33C419.28 69.33 418.378 69.242 417.586 69.066C416.838 68.934 416.2 68.67 415.672 68.274C415.144 67.878 414.748 67.328 414.484 66.624C414.22 65.92 414.088 64.996 414.088 63.852V32.766C414.088 31.842 414.33 31.138 414.814 30.654C415.342 30.126 416.046 29.708 416.926 29.4C418.422 28.872 420.116 28.498 422.008 28.278C423.944 28.014 425.88 27.882 427.816 27.882C433.888 27.882 438.53 29.18 441.742 31.776C444.954 34.372 446.56 37.892 446.56 42.336C446.56 44.492 446.208 46.45 445.504 48.21C444.844 49.926 443.832 51.422 442.468 52.698C441.148 53.93 439.454 54.898 437.386 55.602C435.362 56.262 433.008 56.592 430.324 56.592H425.638V68.736ZM452.437 35.142C452.437 33.25 452.987 31.754 454.087 30.654C455.187 29.554 456.683 29.004 458.575 29.004H480.355C480.663 29.488 480.927 30.126 481.147 30.918C481.411 31.71 481.543 32.546 481.543 33.426C481.543 35.098 481.169 36.286 480.421 36.99C479.717 37.694 478.771 38.046 477.583 38.046H463.657V44.184H478.507C478.815 44.668 479.079 45.306 479.299 46.098C479.563 46.846 479.695 47.66 479.695 48.54C479.695 50.212 479.343 51.4 478.639 52.104C477.935 52.808 476.989 53.16 475.801 53.16H463.657V60.09H480.619C480.927 60.574 481.191 61.212 481.411 62.004C481.675 62.796 481.807 63.632 481.807 64.512C481.807 66.184 481.433 67.394 480.685 68.142C479.981 68.846 479.035 69.198 477.847 69.198H458.575C456.683 69.198 455.187 68.648 454.087 67.548C452.987 66.448 452.437 64.952 452.437 63.06V35.142ZM500.08 56.064V68.736C499.596 68.868 498.826 69 497.77 69.132C496.758 69.264 495.746 69.33 494.734 69.33C493.722 69.33 492.82 69.242 492.028 69.066C491.28 68.934 490.642 68.67 490.114 68.274C489.63 67.878 489.256 67.328 488.992 66.624C488.728 65.92 488.596 64.996 488.596 63.852V32.766C488.596 31.842 488.838 31.138 489.322 30.654C489.85 30.126 490.554 29.708 491.434 29.4C492.93 28.872 494.668 28.498 496.648 28.278C498.628 28.014 500.74 27.882 502.984 27.882C509.056 27.882 513.632 29.158 516.712 31.71C519.792 34.262 521.332 37.716 521.332 42.072C521.332 44.8 520.628 47.132 519.22 49.068C517.812 51.004 516.14 52.5 514.204 53.556C515.788 55.712 517.35 57.736 518.89 59.628C520.43 61.52 521.64 63.236 522.52 64.776C522.08 66.316 521.266 67.504 520.078 68.34C518.934 69.132 517.636 69.528 516.184 69.528C515.216 69.528 514.38 69.418 513.676 69.198C512.972 68.978 512.356 68.67 511.828 68.274C511.3 67.878 510.816 67.394 510.376 66.822C509.936 66.25 509.518 65.634 509.122 64.974L503.578 56.064H500.08ZM504.238 47.286C505.91 47.286 507.23 46.868 508.198 46.032C509.166 45.152 509.65 43.876 509.65 42.204C509.65 40.532 509.1 39.278 508 38.442C506.944 37.562 505.25 37.122 502.918 37.122C502.258 37.122 501.73 37.144 501.334 37.188C500.938 37.232 500.498 37.298 500.014 37.386V47.286H504.238Z" fill="#00BCE5"/>
<circle cx="199" cy="52" r="23" fill="white"/>
<path fill-rule="evenodd" clip-rule="evenodd" d="M196 22C196 20.3431 197.343 19 199 19C200.657 19 202 20.3431 202 22V29.1939C206.107 29.7289 209.874 31.3475 213.004 33.7533L214.556 32.201C215.728 31.0294 217.627 31.0294 218.799 32.201C219.971 33.3726 219.971 35.2721 218.799 36.4437L217.247 37.996C219.653 41.1261 221.271 44.8928 221.806 49H229C230.657 49 232 50.3431 232 52C232 53.6569 230.657 55 229 55H221.806C221.271 59.1072 219.653 62.8739 217.247 66.004L218.799 67.5563C219.971 68.7279 219.971 70.6274 218.799 71.799C217.627 72.9706 215.728 72.9706 214.556 71.799L213.004 70.2467C209.874 72.6525 206.107 74.2711 202 74.8061V82C202 83.6569 200.657 85 199 85C197.343 85 196 83.6569 196 82V74.8061C191.893 74.2711 188.126 72.6525 184.996 70.2467L183.444 71.799C182.272 72.9706 180.373 72.9706 179.201 71.799C178.029 70.6274 178.029 68.7279 179.201 67.5564L180.753 66.004C178.347 62.8739 176.729 59.1072 176.194 55H169C167.343 55 166 53.6569 166 52C166 50.3431 167.343 49 169 49H176.194C176.729 44.8928 178.347 41.1261 180.753 37.996L179.201 36.4436C178.029 35.2721 178.029 33.3726 179.201 32.201C180.373 31.0294 182.272 31.0294 183.444 32.201L184.996 33.7533C188.126 31.3475 191.893 29.7289 196 29.1939V22ZM196 43C196 46.3137 193.314 49 190 49C186.686 49 184 46.3137 184 43C184 39.6863 186.686 37 190 37C193.314 37 196 39.6863 196 43ZM199 37C200.105 37 201 36.1046 201 35C201 33.8954 200.105 33 199 33C197.895 33 197 33.8954 197 35C197 36.1046 197.895 37 199 37Z" fill="#5D6980"/>
</svg>
